<svg xmlns="http://www.w3.org/2000/svg" xmlns:xlink="http://www.w3.org/1999/xlink" viewBox="0 0 230 164.066" height="164" width="230"><defs/><g id="group1" transform="translate(1.500000,1.000000)"><path stroke-width="1" d="M.0,38.2C.0,17.1,17.8,.0,39.8,.0C61.8,.0,79.7,17.1,79.7,38.2C79.7,59.3,61.8,76.4,39.8,76.4C17.8,76.4,.0,59.3,.0,38.2z" stroke="#101843" id="shape2" fill="#feb67e" fill-rule="nonzero" transform="translate(14.187500,2.689400)"/><path stroke-width="6.666669845581055" stroke="#00b050" d="M.0,.0L216.0,.0" id="shape3" fill="none" transform="translate(1.970000,98.510800)"/><path stroke-width="3" d="M.0,24.0C.0,10.8,10.8,.0,24.1,.0C37.3,.0,48.1,10.8,48.1,24.0C48.1,37.3,37.3,48.1,24.1,48.1C10.8,48.1,.0,37.3,.0,24.0z" stroke="#ffd78e" id="shape4" fill="#ffd78e" fill-rule="nonzero" transform="translate(0.000000,113.486000)"/><path stroke-width="3" d="M.0,24.0C.0,10.8,10.8,.0,24.1,.0C37.3,.0,48.1,10.8,48.1,24.0C48.1,37.3,37.3,48.1,24.1,48.1C10.8,48.1,.0,37.3,.0,24.0z" stroke="#ffd78e" id="shape5" fill="#ffd78e" fill-rule="nonzero" transform="translate(59.508700,113.486000)"/><path stroke-width="3" d="M.0,24.0C.0,10.8,10.8,.0,24.1,.0C37.3,.0,48.1,10.8,48.1,24.0C48.1,37.3,37.3,48.1,24.1,48.1C10.8,48.1,.0,37.3,.0,24.0z" stroke="#ffd78e" id="shape6" fill="#ffd78e" fill-rule="nonzero" transform="translate(119.215000,113.486000)"/><path stroke-width="3" d="M.0,24.0C.0,10.8,10.8,.0,24.1,.0C37.3,.0,48.1,10.8,48.1,24.0C48.1,37.3,37.3,48.1,24.1,48.1C10.8,48.1,.0,37.3,.0,24.0z" stroke="#ffd78e" id="shape7" fill="#ffd78e" fill-rule="nonzero" transform="translate(178.920000,113.486000)"/><path stroke-width="4" stroke="#00b050" d="M.0,.0L.0,15.0" id="shape8" fill="none" transform="translate(24.434100,98.510500)"/><path stroke-width="4" stroke="#00b050" d="M.0,.0L.0,18.6" id="shape9" fill="none" transform="translate(53.580100,79.371800)"/><path stroke-width="4" stroke="#00b050" d="M.0,.0L.0,15.0" id="shape10" fill="none" transform="translate(83.942900,98.510500)"/><path stroke-width="4" stroke="#00b050" d="M.0,.0L.0,15.0" id="shape11" fill="none" transform="translate(143.451000,98.510500)"/><path stroke-width="4" stroke="#00b050" d="M.0,.0L.0,15.0" id="shape12" fill="none" transform="translate(203.354000,98.510500)"/><path stroke-width="1" d="M9.8,23.0L9.8,12.4C9.8,10.7,9.6,9.6,9.1,9.0C8.7,8.4,7.9,8.1,6.7,8.1C5.5,8.1,4.6,8.5,3.9,9.4C3.2,10.3,2.9,11.6,2.9,13.3L2.9,23.0L.1,23.0L.1,9.8C.1,7.9,.0,6.7,.0,6.2L2.6,6.2C2.6,6.3,2.7,6.4,2.7,6.6C2.7,6.9,2.7,7.1,2.7,7.4C2.7,7.7,2.7,8.3,2.8,9.1L2.8,9.1C3.4,7.9,4.1,7.1,4.9,6.6C5.6,6.1,6.6,5.9,7.7,5.9C9.0,5.9,10.0,6.2,10.7,6.7C11.5,7.2,12.0,8.0,12.3,9.1L12.3,9.1C12.9,8.0,13.6,7.2,14.4,6.7C15.2,6.2,16.2,5.9,17.4,5.9C19.1,5.9,20.3,6.4,21.1,7.3C21.8,8.2,22.2,9.7,22.2,11.8L22.2,23.0L19.5,23.0L19.5,12.4C19.5,10.7,19.3,9.6,18.8,9.0C18.4,8.4,17.6,8.1,16.4,8.1C15.2,8.1,14.2,8.5,13.6,9.4C12.9,10.3,12.5,11.6,12.5,13.3L12.5,23.0L9.8,23.0zM40.6,14.5C40.6,20.4,38.6,23.3,34.5,23.3C33.2,23.3,32.1,23.1,31.3,22.6C30.5,22.1,29.8,21.4,29.2,20.4L29.2,20.4C29.2,20.7,29.2,21.2,29.1,21.8C29.1,22.5,29.1,22.9,29.1,23.0L26.4,23.0C26.4,22.4,26.5,21.3,26.5,19.5L26.5,.0L29.2,.0L29.2,6.5C29.2,7.2,29.2,8.0,29.2,8.9L29.2,8.9C29.8,7.8,30.4,7.1,31.3,6.6C32.1,6.1,33.2,5.9,34.5,5.9C36.6,5.9,38.1,6.6,39.1,8.1C40.1,9.5,40.6,11.6,40.6,14.5zM37.7,14.6C37.7,12.3,37.4,10.6,36.8,9.6C36.1,8.6,35.1,8.1,33.8,8.1C32.2,8.1,31.0,8.6,30.3,9.7C29.6,10.7,29.2,12.5,29.2,14.8C29.2,17.0,29.6,18.6,30.3,19.7C31.0,20.7,32.1,21.2,33.7,21.2C35.1,21.2,36.1,20.7,36.8,19.7C37.4,18.6,37.7,17.0,37.7,14.6zM58.3,14.6C58.3,17.5,57.6,19.7,56.3,21.1C55.0,22.6,53.2,23.3,50.7,23.3C48.3,23.3,46.4,22.5,45.2,21.1C43.9,19.6,43.3,17.4,43.3,14.6C43.3,8.8,45.8,5.9,50.8,5.9C53.4,5.9,55.2,6.6,56.4,8.0C57.7,9.4,58.3,11.6,58.3,14.6zM55.3,14.6C55.3,12.3,55.0,10.6,54.3,9.5C53.6,8.5,52.5,8.0,50.8,8.0C49.2,8.0,48.0,8.5,47.3,9.6C46.6,10.6,46.2,12.3,46.2,14.6C46.2,16.8,46.6,18.5,47.3,19.6C48.0,20.7,49.1,21.2,50.7,21.2C52.3,21.2,53.5,20.7,54.3,19.6C55.0,18.5,55.3,16.9,55.3,14.6zM72.0,23.0L67.5,16.1L62.9,23.0L59.9,23.0L65.9,14.4L60.2,6.2L63.3,6.2L67.5,12.7L71.6,6.2L74.8,6.2L69.1,14.3L75.1,23.0L72.0,23.0zM77.6,23.0L77.6,6.2L80.4,6.2L80.4,23.0L77.6,23.0zM77.6,2.7L77.6,.0L80.4,.0L80.4,2.7L77.6,2.7zM95.2,20.3C94.7,21.4,94.0,22.1,93.1,22.6C92.3,23.1,91.2,23.3,90.0,23.3C87.9,23.3,86.3,22.6,85.3,21.2C84.3,19.7,83.8,17.6,83.8,14.7C83.8,8.8,85.9,5.9,90.0,5.9C91.3,5.9,92.3,6.1,93.2,6.6C94.0,7.1,94.7,7.8,95.2,8.8L95.2,8.8L95.2,6.9L95.2,.0L98.0,.0L98.0,19.5C98.0,21.3,98.0,22.4,98.1,23.0L95.4,23.0C95.4,22.8,95.4,22.4,95.3,21.8C95.3,21.2,95.3,20.7,95.3,20.3L95.2,20.3zM86.7,14.6C86.7,16.9,87.1,18.6,87.7,19.6C88.3,20.6,89.3,21.1,90.7,21.1C92.3,21.1,93.4,20.6,94.1,19.5C94.8,18.4,95.2,16.7,95.2,14.4C95.2,12.2,94.8,10.6,94.1,9.5C93.4,8.5,92.3,8.0,90.7,8.0C89.3,8.0,88.3,8.5,87.7,9.5C87.1,10.6,86.7,12.3,86.7,14.6z" stroke="#323232" id="shape13" fill="#000000" fill-rule="nonzero" transform="translate(108.181000,56.079400)"/><path d="M40.4,79.3C31.2,78.8,21.8,75.3,14.8,69.7C6.5,63.0,1.2,53.3,.2,43.1C-0.4,37.1,.7,30.2,3.3,24.6C6.8,16.9,12.6,10.2,19.4,6.0C25.8,2.1,33.6,.0,41.5,.0C45.7,.0,48.6,.3,52.1,1.2C62.7,3.9,70.8,9.5,77.1,18.4C80.5,23.2,83.0,29.2,84.1,34.7C84.3,36.1,84.6,38.5,84.6,39.4C84.6,40.2,84.6,40.3,85.1,40.9C86.3,42.4,86.3,43.4,85.1,44.8C84.5,45.4,84.5,45.5,84.3,46.4C83.1,52.7,80.3,58.8,76.3,63.8C75.1,65.3,72.2,68.2,70.7,69.5C64.7,74.5,57.6,77.6,49.0,78.9C47.3,79.1,42.5,79.4,42.2,79.4C42.2,79.3,41.4,79.3,40.4,79.3zM49.0,75.0C49.8,74.3,57.8,66.4,66.8,57.4C79.1,45.1,83.2,41.1,83.6,41.0L84.0,40.8L83.5,40.4C83.0,40.0,83.3,40.0,78.3,40.2C76.4,40.2,73.0,40.3,70.9,40.4C66.7,40.5,66.5,40.5,65.7,41.2C65.4,41.4,65.4,41.4,65.6,41.2C66.5,40.1,67.1,39.8,68.4,39.7C69.0,39.7,71.3,39.6,73.7,39.5C79.0,39.3,81.1,39.2,81.2,39.1C81.2,39.0,80.9,36.5,80.5,34.6C79.9,31.8,78.5,27.6,77.0,25.0C74.1,19.4,69.4,14.0,64.6,10.6C60.0,7.3,55.2,5.3,49.2,4.1C46.3,3.5,44.4,3.3,40.7,3.4C38.4,3.4,37.0,3.5,36.2,3.7C30.2,4.6,26.1,6.0,21.7,8.7C13.0,13.9,6.3,23.3,4.2,33.3C4.0,33.9,3.9,34.5,4.0,34.5C4.0,34.6,4.8,34.3,5.8,33.8C7.9,32.8,9.6,31.4,11.0,29.6C12.4,27.8,13.0,26.7,15.8,20.8C17.8,16.6,20.6,13.1,23.9,10.6C28.5,7.2,34.3,5.6,40.0,6.2C43.2,6.5,46.5,7.8,49.4,9.9C50.4,10.6,50.9,10.9,51.3,11.0C52.2,11.1,53.1,11.6,53.9,12.5C54.4,13.0,54.8,13.5,55.0,13.8C55.1,14.1,55.3,14.2,55.7,14.4C57.0,14.9,58.0,15.7,58.3,16.6C58.4,16.8,58.6,17.1,59.0,17.4C60.3,18.5,63.2,21.1,64.6,22.4C66.7,24.5,67.4,25.6,68.0,27.9C68.3,29.0,68.4,29.2,68.4,31.1C68.4,33.0,68.3,33.4,68.1,34.2C67.7,35.8,66.8,37.4,66.0,38.3C65.8,38.6,65.6,38.6,65.2,38.6C64.9,38.6,64.7,38.7,64.6,38.8C64.5,38.9,64.3,39.1,64.1,39.3C63.8,39.5,63.7,39.5,63.8,39.3C64.1,38.7,64.1,38.7,63.8,38.9C63.6,39.1,62.6,39.6,62.6,39.5C62.6,39.5,62.7,39.3,62.8,39.1C63.0,38.8,63.0,38.6,63.0,38.6C62.9,38.6,62.8,38.7,62.8,38.8C62.7,38.9,61.6,39.5,61.5,39.5C61.5,39.5,61.6,39.2,61.7,39.0C62.1,38.3,62.1,38.2,61.7,38.5C61.3,38.8,60.4,39.1,60.3,39.1C60.3,39.1,60.4,38.8,60.6,38.5C61.0,37.9,61.0,37.8,60.6,38.1C60.2,38.3,59.3,38.7,59.3,38.6C59.2,38.6,59.4,38.4,59.6,38.1C60.0,37.5,60.0,37.4,59.5,37.7C59.1,37.9,58.2,38.2,58.2,38.1C58.2,38.0,58.3,37.8,58.5,37.5C58.7,37.3,58.9,37.1,58.9,37.0C58.9,37.0,58.6,37.1,58.3,37.2C58.0,37.4,57.6,37.5,57.5,37.5C57.3,37.4,57.3,37.4,57.6,36.9C57.8,36.6,57.9,36.4,57.9,36.3C57.9,36.3,57.6,36.4,57.4,36.5C57.2,36.6,56.7,36.7,56.4,36.7L55.9,36.8L56.4,36.2C56.7,35.9,56.9,35.7,56.9,35.6C56.9,35.6,56.6,35.6,56.3,35.7C55.9,35.9,55.5,36.0,55.3,36.0L55.0,36.0L55.4,35.5C55.9,34.8,56.0,34.8,54.9,34.9L53.9,35.0L54.4,34.5C54.8,34.0,54.9,33.8,54.6,33.9C54.5,34.0,54.1,34.0,53.6,34.1L52.9,34.1L53.4,33.6L53.9,33.0L53.2,33.1C52.3,33.2,52.1,33.1,52.6,32.7C52.9,32.5,53.1,32.3,53.1,32.2C53.1,32.2,52.7,32.1,52.2,32.1L51.4,32.1L51.8,31.7C52.1,31.5,52.2,31.3,52.2,31.2C52.1,31.1,51.8,31.1,51.4,31.1L50.7,31.1L51.1,30.7C51.6,30.3,51.5,30.1,50.8,30.0L50.4,29.9L50.6,29.6L50.8,29.4L50.1,28.9C49.7,28.6,49.4,28.4,49.4,28.4C49.4,28.4,49.3,28.7,49.2,29.0L49.0,29.6L49.2,29.8C49.6,30.1,50.4,31.5,50.4,31.9C50.4,32.1,50.4,32.2,50.6,32.3C50.8,32.3,50.9,32.4,51.0,32.7C51.1,33.0,51.2,33.2,51.4,33.3C51.7,33.4,51.8,33.4,51.8,33.8C51.8,34.1,51.8,34.2,52.0,34.2C52.3,34.2,52.5,34.4,52.5,34.8C52.5,35.1,52.6,35.2,52.9,35.0C53.2,34.9,53.4,35.0,53.5,35.6C53.6,36.0,53.6,36.1,53.8,36.1C54.0,36.0,54.2,36.4,54.2,36.8C54.2,37.1,54.2,37.1,54.4,37.0C54.5,36.9,54.6,36.9,54.6,37.1C54.6,37.2,54.5,37.6,54.4,37.8C54.3,38.1,54.2,38.4,54.3,38.4C54.3,38.4,54.6,38.2,54.8,38.0L55.3,37.5L55.2,38.0C55.2,38.3,55.1,38.6,55.0,38.8C54.8,39.2,55.0,39.1,55.5,38.7C56.1,38.2,56.2,38.3,55.9,39.2C55.8,39.5,55.7,39.7,55.8,39.8C55.8,39.8,56.1,39.6,56.3,39.4C56.8,39.0,56.8,38.9,56.8,39.2C56.8,39.4,56.7,39.7,56.6,39.9C56.5,40.5,56.6,40.5,57.1,40.0L57.5,39.6L57.5,39.9C57.5,40.1,57.4,40.4,57.3,40.6C57.2,40.9,57.2,41.0,57.3,41.1C57.4,41.2,57.5,41.4,57.5,41.7C57.5,42.3,57.0,42.8,55.9,43.4C54.6,44.0,53.8,44.3,53.0,44.2C51.9,44.1,51.2,43.6,49.5,42.0C46.1,38.9,44.9,38.0,42.1,36.7C40.1,35.7,39.8,35.5,38.9,34.7C38.4,34.3,37.9,34.0,37.3,33.8C36.9,33.6,36.3,33.4,36.0,33.3C35.6,33.1,35.6,33.1,35.1,33.3C33.4,34.0,31.7,36.2,31.1,38.3C30.9,39.4,30.7,41.4,30.8,42.4C30.8,42.8,31.0,44.1,31.3,45.2C31.9,47.7,32.0,49.2,31.9,51.0C31.8,51.8,31.7,52.5,31.7,52.5C31.7,52.6,31.9,53.2,32.2,54.0C32.6,55.1,32.8,55.4,33.0,55.4C33.1,55.5,34.1,55.5,35.2,55.5L37.1,55.5L37.6,55.0C38.0,54.5,38.5,54.2,39.1,54.2C39.3,54.2,39.5,54.1,39.8,53.6C40.4,52.7,40.7,52.6,43.0,52.7C44.3,52.7,45.1,52.8,45.3,52.9C45.4,53.0,45.9,53.4,46.2,53.8C46.6,54.2,46.9,54.5,46.9,54.5C47.1,54.3,48.5,51.2,48.5,51.1C48.4,51.0,45.8,49.5,43.8,48.4C43.1,48.0,42.5,47.6,42.4,47.4C42.4,47.3,42.0,47.0,41.6,46.7C40.8,46.1,40.7,45.8,41.3,45.2C41.6,44.7,42.0,44.7,42.8,45.1C43.2,45.4,43.4,45.5,43.7,45.4C43.9,45.4,44.2,45.5,44.8,45.9C46.2,46.7,46.7,47.0,46.7,47.2C46.7,47.4,47.0,47.6,47.8,48.1C48.4,48.4,49.4,49.0,50.0,49.3L51.0,50.0L51.4,49.8C51.6,49.6,52.3,49.3,52.9,48.9C54.3,48.2,54.8,48.1,55.6,48.6C56.0,48.8,56.5,49.6,56.7,50.3C56.8,50.5,57.0,50.3,59.1,48.3C60.4,47.0,62.5,45.0,63.8,43.6C65.1,42.3,66.3,41.1,66.6,41.0C66.9,40.8,67.4,40.8,70.8,40.7C72.9,40.7,76.3,40.6,78.2,40.6C81.3,40.6,81.9,40.6,82.0,40.8C82.1,40.9,82.2,41.1,82.1,41.2C82.0,41.7,48.1,75.4,47.4,75.8C47.0,75.9,47.0,75.9,46.6,75.7C46.4,75.6,44.4,74.1,42.3,72.3C38.7,69.5,37.9,68.9,37.9,69.2C37.9,69.4,40.5,71.5,44.1,74.5C46.6,76.6,46.5,76.5,47.1,76.4C47.5,76.4,47.7,76.2,49.0,75.0zM41.6,74.4C40.8,73.5,39.3,72.2,38.4,71.3L36.7,69.8L35.6,70.4C31.0,72.7,31.0,72.8,30.4,72.8C29.7,72.9,28.9,72.7,27.7,72.0C27.3,71.8,27.0,71.7,26.9,71.7C26.9,71.7,26.4,72.5,26.4,72.6C26.4,72.6,27.1,72.8,27.8,73.1C32.1,74.8,37.3,75.8,42.2,75.9L43.2,75.9L41.6,74.4zM57.0,73.3C62.0,71.6,66.3,69.0,70.3,65.2C73.6,62.0,76.3,58.3,78.2,54.2C78.7,52.9,79.9,49.9,79.8,49.9C79.8,49.9,74.4,55.2,67.9,61.8C61.4,68.3,56.0,73.7,56.0,73.7C56.0,73.7,56.5,73.5,57.0,73.3zM54.6,67.7C61.1,61.2,68.8,53.6,74.0,48.4L78.3,44.1L77.7,44.0C77.4,43.9,75.3,43.8,73.0,43.7C70.7,43.6,68.3,43.5,67.6,43.5L66.5,43.4L62.3,47.5C58.5,51.2,58.1,51.7,58.1,51.9C58.1,52.1,58.3,52.8,58.4,53.5C58.6,54.1,58.8,54.8,58.9,54.8C59.0,55.0,59.1,54.9,59.5,54.5C59.7,54.3,59.9,54.0,59.9,54.0C59.9,54.0,59.6,53.9,59.3,53.8C58.9,53.7,58.7,53.7,58.7,53.5C58.7,53.3,59.5,52.7,61.6,51.4C63.3,50.4,63.5,50.3,63.9,50.4C64.2,50.4,64.3,50.5,64.3,50.5C64.3,50.6,63.7,51.2,62.9,52.0C61.8,53.2,61.6,53.4,61.8,53.5C62.0,53.6,62.0,53.6,61.7,53.9C61.5,54.1,61.2,54.2,61.1,54.2C61.0,54.2,60.6,54.4,60.3,54.7C59.8,55.1,59.6,55.2,59.4,55.2C59.2,55.2,59.3,55.2,59.6,55.5C59.8,55.7,60.4,56.3,60.9,56.9L61.8,58.0L61.3,58.0C60.8,58.0,59.2,57.7,58.7,57.5C58.6,57.5,58.5,57.6,58.4,57.8C58.3,58.0,58.1,58.3,57.8,58.5C57.4,58.7,57.4,58.8,57.3,59.4C57.3,59.7,57.2,60.0,57.0,60.2C56.7,60.5,55.7,60.9,55.2,60.9C55.0,60.8,54.7,61.0,53.9,61.7C53.0,62.6,52.9,62.6,52.6,62.5L52.2,62.3L52.8,61.7C53.2,61.4,53.7,61.0,54.0,60.7C54.4,60.3,54.4,60.3,54.4,59.9C54.3,59.7,54.2,59.5,54.1,59.5C54.0,59.5,53.4,60.2,52.4,61.5C51.8,62.3,51.1,62.8,50.1,63.3C49.4,63.6,49.0,63.8,46.6,66.1C45.5,67.1,45.5,67.1,45.1,67.0L44.8,66.9L45.1,66.6C45.3,66.4,46.1,65.7,46.9,65.0C48.2,63.8,48.4,63.5,48.0,63.5C47.9,63.5,47.7,63.5,47.6,63.4C47.3,63.2,46.8,63.6,45.1,65.1C43.9,66.2,43.8,66.3,43.4,65.9C43.4,65.9,43.5,65.7,43.8,65.5L44.2,65.2L43.7,65.4C43.5,65.5,42.8,65.9,42.3,66.3L41.2,66.9L41.4,67.1C41.9,67.5,49.4,72.5,49.5,72.5C49.6,72.5,51.8,70.3,54.6,67.7zM30.4,65.8C30.8,64.9,31.6,63.6,32.0,63.2L32.3,62.9L32.2,63.3C32.0,63.9,31.9,65.2,32.1,65.9C32.2,66.2,32.3,66.5,32.3,66.5C32.4,66.5,32.4,66.2,32.4,66.0C32.4,65.7,32.6,65.0,32.7,64.4L32.9,63.4L33.2,63.7C33.3,63.9,33.6,64.4,33.9,64.9L34.4,65.7L34.4,65.2C34.4,64.7,35.0,62.7,35.2,62.5C35.3,62.4,35.3,62.7,35.3,63.0C35.4,63.4,35.4,63.7,35.4,63.8C35.5,63.9,35.9,63.5,36.0,63.1L36.2,62.7L36.3,63.0C36.4,63.3,37.0,63.7,37.3,63.7C37.4,63.7,37.7,63.9,38.0,64.2C38.4,64.5,38.5,64.6,38.5,64.4C38.4,64.1,38.0,62.6,38.0,62.5C38.0,62.3,39.0,63.0,39.6,63.6C39.9,63.8,40.1,64.0,40.1,64.0C40.1,63.9,40.0,63.5,39.9,63.0C39.8,62.5,39.7,62.1,39.7,62.1C39.8,62.0,40.6,62.5,41.1,62.9L41.5,63.2L41.2,62.3L41.0,61.5L41.3,61.6C41.5,61.7,41.9,62.0,42.2,62.3C42.5,62.5,42.7,62.6,42.6,62.5C42.6,62.4,42.4,62.1,42.3,61.8C42.2,61.5,42.1,61.2,42.0,61.1C42.0,61.0,42.6,61.3,43.2,61.8L43.6,62.0L43.3,61.3C43.2,60.9,43.0,60.6,43.1,60.6C43.1,60.6,43.4,60.7,43.8,61.0L44.6,61.4L44.4,61.1C44.3,60.9,44.2,60.6,44.2,60.4L44.1,60.0L44.5,60.3C44.8,60.4,45.1,60.6,45.2,60.7L45.5,60.9L45.3,60.3C45.1,59.9,45.0,59.6,45.0,59.6C44.9,59.4,45.5,59.7,45.9,60.0C46.4,60.4,46.4,60.4,46.1,59.7C45.9,59.4,45.8,59.1,45.9,59.1C45.9,59.0,46.2,59.2,46.5,59.4C47.0,59.7,47.1,59.8,47.1,59.6C46.7,58.8,46.7,58.6,46.9,58.6C46.9,58.5,47.2,58.6,47.3,58.8L47.7,59.0L47.5,58.5C47.3,57.9,47.4,57.7,47.8,58.0C48.3,58.3,48.3,58.3,48.0,57.7C47.7,57.1,47.9,56.9,48.5,57.3L48.9,57.6L48.7,57.2C48.4,56.9,48.3,56.2,48.5,56.2C48.5,56.2,48.7,56.3,48.8,56.4L49.1,56.6L48.9,56.1C48.7,55.5,48.8,55.4,49.2,55.7C49.5,55.9,49.5,55.9,49.4,55.6C49.2,55.1,49.0,54.6,48.9,54.6C48.8,54.6,48.7,54.7,48.6,54.9C48.5,55.3,46.8,58.0,46.7,58.0C46.6,58.0,46.6,57.9,47.5,56.7C47.8,56.1,48.2,55.4,48.4,55.1C48.6,54.6,48.6,54.5,48.5,54.2C48.4,54.1,48.3,54.0,48.3,54.0C48.2,54.0,48.0,54.3,47.8,54.7C47.6,55.0,47.1,55.9,46.7,56.5L45.9,57.6L46.2,57.9C46.5,58.2,46.5,58.4,46.2,58.1C46.0,58.0,45.8,58.0,45.8,58.0C45.7,58.0,45.1,58.2,44.6,58.6C42.7,59.7,40.0,60.8,38.1,61.2C37.6,61.3,36.5,61.4,35.8,61.5C34.4,61.6,34.4,61.7,33.9,62.1L33.5,62.6L33.7,62.2C33.8,62.0,33.8,61.8,33.8,61.8C33.8,61.6,32.0,61.7,31.6,61.9C31.2,62.1,30.4,63.0,30.1,63.6C29.9,64.0,29.6,65.5,29.7,66.0C29.7,66.2,29.8,66.5,29.8,66.8L29.9,67.2L30.0,66.9C30.1,66.7,30.3,66.2,30.4,65.8zM28.8,64.6C29.0,64.2,29.5,63.4,29.9,62.9C30.3,62.4,30.5,61.9,30.5,61.9C30.5,61.8,30.3,61.8,30.1,61.8L29.7,61.9L30.0,61.7L30.3,61.5L30.0,60.7C29.7,59.9,29.6,59.8,29.1,59.6C28.3,59.3,27.1,59.3,26.2,59.6C25.4,59.8,24.3,60.4,25.0,60.2C25.7,60.1,26.8,60.0,27.4,60.2C28.0,60.3,28.1,60.5,27.5,60.5C27.4,60.5,27.0,60.7,26.7,60.9C26.4,61.1,26.3,61.2,26.5,61.2C27.4,60.9,29.1,60.9,29.1,61.1C29.1,61.1,28.8,61.3,28.4,61.4C28.0,61.5,27.6,61.8,27.2,62.2L26.6,62.7L27.3,62.4C27.8,62.2,28.3,62.0,28.6,62.0L29.2,61.9L28.8,62.3C28.4,62.7,27.8,63.9,27.8,64.1C27.8,64.2,28.0,64.0,28.3,63.7C29.0,62.9,29.3,62.8,28.8,63.5C28.4,64.2,28.1,65.3,28.0,66.1L27.9,66.8L28.1,66.1C28.3,65.8,28.6,65.1,28.8,64.6zM36.7,65.1C36.7,64.8,36.6,64.4,36.6,64.1C36.5,63.7,36.3,63.5,36.0,63.7C35.7,63.9,35.8,64.2,36.3,64.9C36.5,65.2,36.7,65.5,36.7,65.5C36.8,65.5,36.7,65.3,36.7,65.1zM35.9,60.3C35.9,60.2,35.7,60.2,35.4,60.3C34.6,60.4,34.6,60.4,35.3,60.4C35.7,60.4,35.9,60.4,35.9,60.3zM14.8,59.7C14.8,59.7,14.3,59.3,13.7,58.9C12.1,57.7,9.2,54.9,7.9,53.2L7.5,52.8L7.9,53.5C8.7,54.9,10.1,56.7,11.5,57.9C12.0,58.3,12.8,58.8,13.5,59.2C14.8,59.8,15.0,59.9,14.8,59.7zM41.2,58.9C41.5,58.7,41.8,58.6,41.7,58.5C41.7,58.4,41.4,58.3,41.0,58.2L40.3,58.1L40.1,58.6C40.0,58.9,39.9,59.2,39.9,59.2C39.9,59.3,40.5,59.2,41.2,58.9zM29.2,59.0C29.2,58.7,28.2,56.7,27.8,56.3C26.9,55.3,25.0,54.3,24.5,54.6C24.4,54.7,24.3,54.8,24.3,55.0C24.3,55.3,24.4,55.3,25.1,55.6L25.3,55.7L25.1,55.7C24.8,55.8,24.5,56.0,24.5,56.2C24.5,56.2,24.8,56.4,25.2,56.6C25.9,56.9,27.3,57.6,27.2,57.7C27.2,57.7,26.9,57.7,26.6,57.6C26.0,57.5,26.0,57.5,25.9,58.0C25.9,58.2,26.1,58.3,27.2,58.5C27.9,58.7,28.6,58.9,28.7,59.0C29.1,59.1,29.2,59.2,29.2,59.0zM56.4,58.2C56.3,57.3,56.0,56.8,55.5,56.7C55.3,56.6,54.6,56.6,53.8,56.7C52.5,56.7,52.4,56.8,52.2,57.1C52.0,57.3,51.9,57.5,51.9,57.8C51.9,58.3,52.1,58.2,52.3,57.7L52.4,57.4L52.6,57.7C52.9,58.1,53.2,58.0,53.4,57.6L53.6,57.2L53.7,57.5C53.8,57.9,54.4,58.0,54.5,57.6C54.7,57.3,54.7,57.3,54.8,57.7C54.9,58.0,55.0,58.1,55.1,58.0C55.2,57.9,55.3,57.7,55.3,57.7C55.3,57.6,55.3,57.5,55.4,57.5C55.6,57.5,55.6,57.6,55.6,57.9C55.6,58.1,55.7,58.3,55.7,58.4C55.8,58.6,55.9,58.6,56.0,58.4C56.1,58.3,56.1,58.3,56.2,58.6C56.4,59.2,56.6,58.9,56.4,58.2zM37.0,58.5C37.0,58.2,37.1,58.1,37.3,58.3C37.5,58.6,37.5,58.4,37.4,58.0C37.3,57.6,37.4,57.4,37.6,57.6C37.8,57.8,37.9,57.7,38.0,57.0L38.1,56.3L38.4,56.7C38.6,57.0,38.8,57.1,38.9,57.1C38.9,57.1,38.9,57.0,38.9,56.7C38.8,56.4,38.9,56.3,39.0,56.1C39.3,55.9,39.4,55.9,39.3,56.3C39.3,56.6,39.3,56.7,39.5,56.7C39.6,56.7,39.7,56.7,39.8,56.7C39.9,56.8,40.0,56.7,40.1,56.4L40.3,56.0L40.4,56.4C40.5,56.9,40.9,56.9,41.2,56.5C41.4,56.1,41.5,56.1,41.4,56.5C41.4,56.7,41.5,56.9,41.6,57.0C41.8,57.3,41.8,57.3,41.9,57.0C42.0,56.8,42.3,56.7,42.6,56.6C43.9,56.2,42.7,55.7,39.2,55.2C38.6,55.1,38.3,55.3,37.7,56.5C36.9,57.8,36.7,58.4,36.9,58.7C37.1,59.0,37.1,58.9,37.0,58.5zM34.2,57.3C34.3,57.3,34.6,57.1,34.8,56.8L35.1,56.4L34.7,56.3C33.9,56.2,33.2,56.6,32.8,57.3C32.3,58.1,32.4,58.2,33.0,57.6C33.6,57.0,33.8,57.0,33.6,57.6C33.3,58.2,33.4,58.3,33.7,57.8C33.9,57.6,34.1,57.4,34.2,57.3zM35.1,57.5C35.2,57.4,35.4,57.4,35.4,57.4C35.4,57.4,35.3,57.6,35.3,57.8C35.1,58.3,35.3,58.3,35.5,57.9C35.6,57.5,36.0,57.2,35.9,57.6C35.9,57.7,35.9,57.9,36.0,57.9C36.1,58.0,36.2,57.9,36.5,57.2L36.9,56.3L36.2,56.3C35.8,56.3,35.5,56.4,35.3,56.5C35.0,56.7,34.5,57.5,34.4,57.9L34.3,58.3L34.6,57.9C34.7,57.8,35.0,57.6,35.1,57.5zM25.6,57.7C25.6,57.5,25.6,57.5,24.8,57.5C24.3,57.6,23.7,57.7,23.6,57.7C23.2,57.9,23.2,57.9,24.1,58.0C25.5,58.1,25.5,58.1,25.6,57.7zM33.1,56.2C32.5,56.2,32.1,56.6,31.7,57.5L31.5,58.1L32.5,57.2L33.5,56.3L33.1,56.2zM44.1,57.6C44.3,57.4,44.3,57.4,43.8,56.9C43.3,56.4,43.3,56.4,43.0,56.6C42.5,57.1,42.5,57.2,43.0,57.5C43.5,57.8,43.8,57.8,44.1,57.6zM12.6,56.2C11.6,54.7,10.9,53.4,10.6,52.6C10.4,52.2,10.3,51.9,10.3,52.0C10.2,52.0,10.6,53.5,10.9,54.2C11.1,54.6,11.5,55.3,11.8,55.7C12.3,56.4,13.2,57.5,13.3,57.5C13.4,57.4,13.0,56.9,12.6,56.2zM60.2,56.6C58.8,55.4,58.1,54.8,58.3,55.3C58.5,55.5,60.8,57.4,60.9,57.4C61.0,57.4,60.6,57.0,60.2,56.6zM31.4,56.7C31.6,56.4,31.9,56.1,31.9,56.0C32.0,55.9,31.4,54.2,31.3,54.2C31.2,54.2,30.7,55.7,30.7,56.0C30.7,56.1,30.8,56.0,31.0,55.8C31.3,55.4,31.4,55.5,31.1,56.1C30.9,56.3,30.9,56.6,30.9,56.9C30.9,57.1,31.0,57.3,31.0,57.2C31.0,57.2,31.2,57.0,31.4,56.7zM51.1,56.1C51.2,56.0,51.5,55.9,51.7,56.0C52.1,56.0,52.1,56.0,52.2,55.7C52.2,55.5,52.2,55.3,52.2,55.2C52.1,54.8,52.4,55.0,52.7,55.4C52.8,55.7,52.9,55.8,53.2,55.8C53.6,55.8,53.6,55.8,53.3,55.2C53.3,55.1,53.4,55.1,53.6,55.2C54.1,55.5,54.3,55.4,54.3,55.0C54.3,54.8,54.3,54.8,54.5,55.0C54.6,55.1,54.7,55.3,54.7,55.3C54.7,55.4,54.9,55.4,55.1,55.4C55.4,55.3,55.5,55.2,55.5,55.0C55.5,54.6,55.7,54.6,55.8,55.1C55.9,55.6,56.2,55.6,56.4,55.2C56.4,55.1,56.5,54.9,56.6,54.9C56.7,54.9,56.8,55.5,56.7,55.8C56.6,56.1,56.7,56.2,57.0,55.9C57.1,55.7,57.1,55.8,57.3,56.3L57.4,56.9L57.5,56.4C57.5,55.8,57.3,54.5,57.0,54.2L56.7,53.9L55.0,53.9C54.1,54.0,53.4,54.0,53.5,53.9C53.7,53.9,53.7,53.7,53.5,53.7C53.3,53.7,52.5,53.0,52.5,52.8C52.5,52.8,52.6,52.8,52.7,52.8C52.9,52.9,53.3,52.9,54.1,52.8C55.3,52.7,55.5,52.6,55.2,52.1C55.1,51.9,55.2,51.9,55.3,51.9C55.5,52.0,55.6,52.1,55.7,52.3C55.7,52.5,55.8,52.7,55.8,52.7C55.9,52.8,56.2,52.5,56.2,52.3C56.3,52.0,56.5,52.2,56.6,52.6C56.6,52.8,56.7,52.9,56.8,52.9C57.0,52.9,57.2,53.1,57.3,53.3C57.5,53.5,57.6,53.6,57.6,53.5C57.6,53.4,57.0,51.6,56.9,51.5C56.7,51.1,56.2,51.1,54.4,51.4L52.5,51.8L51.9,51.2L51.3,50.7L50.5,51.0C50.0,51.1,49.5,51.3,49.4,51.4C49.1,51.7,48.5,53.4,48.5,53.7C48.6,53.8,48.7,54.0,48.8,54.0C48.9,54.0,49.0,53.9,49.1,53.4C49.2,53.1,49.4,52.7,49.5,52.5C49.6,52.4,49.8,52.2,49.9,52.0C50.1,51.8,50.3,51.8,50.8,51.8L51.5,51.8L50.9,52.0C50.6,52.0,50.3,52.2,50.2,52.3C49.9,52.7,49.4,54.2,49.5,54.5C49.5,54.9,49.8,55.0,49.9,54.7C50.1,53.9,50.3,53.7,50.8,53.6C51.2,53.6,51.3,53.6,51.3,53.3C51.3,53.0,51.3,52.9,51.5,52.9C51.6,52.8,51.7,52.9,51.6,53.1C51.5,53.4,52.0,53.9,52.3,53.9C52.8,53.9,52.7,54.1,52.2,54.2C51.5,54.3,51.1,54.5,50.9,55.1C50.5,56.0,50.4,57.5,50.8,56.6C50.9,56.4,51.0,56.2,51.1,56.1zM24.2,55.8C24.3,55.7,24.2,55.5,24.1,55.3C24.0,55.1,24.0,54.9,24.0,54.8C24.0,54.5,23.6,54.4,22.8,54.5C22.3,54.6,22.1,54.7,21.8,55.0L21.3,55.4L21.8,55.4C22.4,55.4,23.3,55.6,23.7,55.8C24.1,56.0,24.2,56.0,24.2,55.8zM21.2,55.1C21.4,54.9,21.5,54.8,21.5,54.7C21.4,54.6,20.0,55.3,19.6,55.6L19.4,55.9L20.1,55.6C20.5,55.5,21.0,55.2,21.2,55.1zM27.5,55.0C27.2,54.4,27.0,54.1,26.4,53.6C25.9,53.2,25.6,52.9,25.6,52.9C25.6,52.9,25.8,53.0,26.2,53.1C26.5,53.3,26.8,53.4,26.8,53.4C26.8,53.4,26.8,53.2,26.7,52.9C26.3,51.9,24.6,50.6,22.8,50.1C20.6,49.5,18.1,50.0,16.5,51.6L15.9,52.1L16.7,51.7C18.1,51.0,19.1,50.9,21.6,51.1C21.8,51.1,21.9,51.1,21.9,51.0C21.9,50.9,21.9,50.9,22.0,50.9C22.1,50.9,22.2,51.1,22.2,51.2C22.2,51.3,22.4,51.6,22.8,51.8C23.1,51.9,23.4,52.1,23.4,52.1C23.4,52.2,22.9,52.2,22.3,52.2C21.5,52.1,21.1,52.2,20.4,52.4L19.6,52.7L20.5,52.7C21.7,52.9,22.7,53.1,24.5,53.8C24.7,53.9,24.7,53.9,24.5,53.6C24.1,53.1,24.4,53.2,24.8,53.7C25.0,54.0,25.3,54.3,25.5,54.4C25.7,54.5,26.3,54.9,26.8,55.2C27.3,55.6,27.8,55.8,27.8,55.8C27.8,55.8,27.7,55.4,27.5,55.0zM46.3,55.5C46.4,55.3,46.4,55.2,46.1,54.9C45.9,54.7,45.7,54.6,45.6,54.6C45.4,54.6,44.9,55.0,45.0,55.1C45.3,55.3,45.9,55.6,46.0,55.6C46.1,55.6,46.2,55.6,46.3,55.5zM44.5,54.8C44.5,54.7,44.7,54.6,45.0,54.5C45.4,54.4,45.5,54.3,45.4,54.1C45.1,53.7,44.7,53.6,42.9,53.5C41.9,53.5,41.0,53.5,41.0,53.5C40.8,53.7,40.4,54.3,40.4,54.4C40.4,54.5,40.6,54.6,40.8,54.6C41.2,54.6,41.3,54.6,41.4,54.4C41.5,54.0,41.8,54.0,41.7,54.3C41.7,54.8,42.2,54.8,42.5,54.4C42.7,54.2,42.8,54.2,42.7,54.3C42.7,54.5,42.9,54.8,43.1,54.8C43.2,54.8,43.4,54.7,43.6,54.5C43.8,54.2,43.9,54.2,43.9,54.4C43.9,54.6,44.2,55.1,44.3,55.1C44.4,55.1,44.4,55.0,44.5,54.8zM29.2,52.0C29.2,51.9,29.2,51.8,29.3,51.7C29.4,51.7,29.4,51.8,29.4,52.1C29.2,53.2,29.2,53.9,29.3,53.7C29.6,53.3,30.1,51.5,30.3,50.6C30.5,49.3,30.5,49.0,30.1,48.1L29.8,47.3L30.1,47.7C30.5,48.2,30.5,48.2,30.2,46.6C29.7,44.1,29.0,42.6,26.3,38.6C25.2,37.0,24.4,35.8,24.3,35.8C24.2,35.9,26.4,40.0,27.7,42.4C27.9,42.7,27.8,42.6,27.4,42.1C27.1,41.8,26.3,41.0,25.8,40.3C24.1,38.5,22.3,36.4,21.3,35.0C20.8,34.3,20.3,33.7,20.3,33.6C20.2,33.6,20.5,34.1,20.8,34.7C21.6,36.2,22.9,38.1,24.0,39.6C27.8,44.2,29.0,45.7,29.0,46.0C29.0,46.1,28.7,45.8,28.4,45.5C27.7,44.7,26.0,43.3,25.0,42.6C23.7,41.7,20.9,40.3,21.4,40.8C21.5,40.9,22.2,41.5,22.9,42.1C24.1,43.1,24.7,43.8,25.6,44.9C25.8,45.1,25.8,45.1,25.5,44.9C22.8,43.0,21.4,42.3,19.2,41.6C17.4,41.0,17.1,41.0,18.1,41.6C21.7,43.5,24.8,46.4,26.5,49.2C26.9,50.0,27.0,49.8,26.6,48.7C26.3,47.7,25.7,46.9,24.9,45.9L24.3,45.2L24.9,45.9C25.8,46.7,26.6,47.8,27.2,48.8C27.5,49.5,27.6,49.6,27.6,49.3C27.6,48.8,27.3,47.5,27.1,47.0C27.0,46.6,27.0,46.6,27.2,46.8C27.5,47.2,28.1,48.7,28.3,49.4C28.4,50.1,28.5,51.8,28.4,53.1L28.3,53.9L28.7,53.0C29.0,52.5,29.2,52.0,29.2,52.0zM61.4,52.6C62.0,52.0,62.0,51.9,61.7,52.1C61.4,52.3,61.0,52.5,60.7,52.7C60.1,53.1,60.0,53.2,60.4,53.2C60.6,53.3,60.7,53.3,60.7,53.3C60.7,53.3,61.0,53.0,61.4,52.6zM25.9,50.7C25.6,49.8,25.3,49.4,24.6,48.9C24.0,48.5,24.1,48.4,24.8,48.8C25.0,48.9,25.2,49.0,25.2,48.9C25.2,48.6,24.3,47.3,23.6,46.5C22.6,45.4,21.8,44.9,21.4,45.0C21.1,45.0,21.0,45.0,21.1,44.8C21.1,44.7,21.1,44.6,20.9,44.5C20.3,44.2,18.0,44.9,18.3,45.2C18.4,45.2,18.7,45.3,19.1,45.4C20.0,45.7,21.2,46.3,22.1,46.8C22.9,47.4,22.8,47.4,21.8,46.9C20.7,46.3,19.5,46.0,18.4,45.9C17.7,45.8,17.5,45.8,17.4,46.0C17.4,46.1,17.5,46.3,17.9,46.6C18.4,47.0,18.7,47.1,19.6,47.3C20.2,47.4,20.7,47.6,20.7,47.6C20.8,47.6,20.4,47.7,19.8,47.7C19.2,47.8,18.4,47.9,17.8,48.1C16.8,48.4,16.4,48.7,17.2,48.5C17.8,48.4,19.0,48.4,20.2,48.6C22.0,48.9,23.4,49.5,25.1,50.7C25.6,51.1,26.0,51.4,26.1,51.4C26.1,51.4,26.0,51.1,25.9,50.7zM53.2,50.9C53.7,50.7,53.8,50.6,53.8,50.4C53.9,50.1,53.8,50.0,53.6,49.9C53.3,49.7,53.3,49.7,52.4,50.1C51.9,50.3,51.5,50.6,51.4,50.6C51.4,50.6,51.5,50.7,51.6,50.9C51.9,51.1,52.3,51.2,53.2,50.9zM55.0,50.2C55.1,50.5,55.2,50.6,55.5,50.5C55.7,50.5,55.7,50.4,55.7,50.2C55.5,49.4,54.9,49.0,54.3,49.2C53.7,49.4,53.6,49.6,53.9,49.8C54.0,49.9,54.1,50.2,54.2,50.3L54.3,50.7L54.6,50.3C54.9,50.0,54.9,50.0,55.0,50.2zM50.1,50.0C49.9,49.9,46.6,47.9,46.2,47.6C46.1,47.6,46.1,47.6,46.0,47.7C46.0,47.8,46.3,48.0,46.8,48.3C49.5,50.0,50.2,50.4,50.3,50.3C50.4,50.3,50.3,50.2,50.1,50.0zM13.9,47.6C14.7,47.2,15.8,46.9,16.4,46.9C16.6,46.9,16.9,47.0,17.2,47.1C17.4,47.2,17.6,47.3,17.7,47.3C17.9,47.3,17.8,46.9,17.5,46.7C17.4,46.6,17.2,46.4,17.0,46.2C16.6,45.8,16.4,45.8,15.6,46.0C14.6,46.3,13.1,47.4,12.4,48.4L12.1,48.8L12.6,48.4C12.9,48.2,13.5,47.8,13.9,47.6zM45.7,47.6L46.0,47.3L44.7,46.6C44.1,46.2,43.5,45.9,43.4,45.9C43.2,45.9,43.0,46.2,43.1,46.4C43.1,46.5,43.2,46.5,43.3,46.5C43.5,46.3,45.3,47.4,45.3,47.6C45.2,47.9,45.4,47.9,45.7,47.6zM43.0,45.9C43.0,45.8,43.0,45.7,42.9,45.7C42.8,45.6,42.4,45.7,42.5,45.9C42.6,46.0,42.9,46.0,43.0,45.9zM42.3,45.6C42.4,45.4,42.4,45.4,42.2,45.3C41.9,45.1,41.8,45.1,41.8,45.3C41.8,45.5,42.0,45.7,42.1,45.7C42.2,45.7,42.3,45.7,42.3,45.6zM13.1,44.4C13.6,44.3,14.1,44.3,14.2,44.3C14.3,44.3,14.4,44.3,14.6,44.3C14.9,44.2,14.9,44.2,14.8,44.1C14.6,44.0,15.4,44.0,16.4,44.1L17.1,44.2L16.7,44.3C16.2,44.3,15.8,44.7,16.1,44.7C16.4,44.9,17.5,44.9,17.6,44.8C17.8,44.7,18.8,44.5,19.2,44.5C19.4,44.5,19.7,44.4,19.8,44.3C20.2,44.1,19.0,43.6,17.3,43.4C15.6,43.2,13.5,43.6,11.9,44.5C11.0,45.0,10.8,45.2,11.6,44.9C11.9,44.8,12.6,44.6,13.1,44.4zM14.8,44.8C15.7,44.6,16.0,44.3,15.3,44.3C14.9,44.3,14.1,44.7,13.7,45.0L13.4,45.2L13.7,45.1C13.9,45.0,14.4,44.9,14.8,44.8zM4.1,42.4C3.8,42.0,3.8,42.1,4.0,42.8C4.2,43.3,4.2,43.3,4.3,43.0C4.3,42.7,4.2,42.5,4.1,42.4zM7.9,42.6C7.9,42.4,7.7,41.5,7.6,40.7C7.4,39.2,7.3,38.8,7.0,39.0C6.9,39.0,6.8,39.0,6.9,38.7C7.0,38.3,7.2,38.1,7.2,38.3C7.2,38.4,8.1,39.8,8.2,39.8C8.2,39.8,8.2,39.5,8.1,39.3C8.0,38.7,8.0,36.3,8.1,35.7L8.2,35.3L8.3,35.9C8.6,36.9,9.2,38.2,9.6,38.4C9.7,38.5,9.9,38.5,9.9,38.5C9.9,38.4,9.9,37.9,9.9,37.2L9.9,35.9L8.9,35.4C8.4,35.1,7.8,34.8,7.7,34.8C7.4,34.5,7.2,34.7,6.8,35.5L6.5,36.1L6.6,35.6C6.6,35.4,6.6,35.2,6.5,35.2C6.4,35.2,4.0,36.1,3.9,36.2C3.8,36.2,3.7,36.7,3.7,37.2C3.6,38.2,3.7,38.6,4.0,38.5C4.1,38.4,4.2,38.5,4.2,38.6C4.2,39.0,4.5,39.7,4.6,39.7C4.7,39.7,4.8,39.2,5.0,38.7C5.1,38.1,5.4,37.4,5.5,37.1L5.8,36.5L5.9,37.1C6.0,37.5,6.1,38.1,6.2,38.6C6.3,39.6,6.9,41.1,7.5,42.3C7.8,42.8,8.1,43.2,8.1,43.1C8.1,43.1,8.0,42.9,7.9,42.6zM4.5,41.2C4.5,40.4,4.5,40.2,4.2,39.5C4.0,39.1,3.8,38.8,3.7,38.8C3.6,38.8,3.6,39.3,3.6,39.9C3.6,41.1,3.6,41.2,4.0,41.7C4.2,42.0,4.4,42.2,4.4,42.2C4.4,42.2,4.5,41.7,4.5,41.2zM56.5,41.7C56.5,41.5,56.2,41.1,55.0,40.1C54.1,39.3,53.4,38.6,53.3,38.6C53.1,38.6,52.9,39.1,53.0,39.3C53.0,39.4,53.2,39.5,53.3,39.5C53.6,39.5,53.6,39.5,53.6,39.7C53.6,39.9,53.6,40.0,53.9,40.0C54.0,40.0,54.2,40.1,54.2,40.2C54.2,40.6,54.2,40.6,54.5,40.6C54.8,40.6,54.9,40.6,54.9,40.9C54.9,41.2,55.0,41.2,55.3,41.2C55.6,41.2,55.6,41.2,55.6,41.5C55.6,41.9,55.8,42.0,56.2,42.0C56.4,42.0,56.5,41.9,56.5,41.7zM10.3,39.9C10.1,39.1,10.0,38.9,9.7,38.8C9.5,38.7,9.4,38.7,9.4,38.8C9.4,39.0,10.4,40.9,10.5,40.8C10.5,40.8,10.4,40.4,10.3,39.9zM29.5,38.8C29.6,38.3,29.5,38.2,29.0,37.5C28.8,37.0,28.1,36.2,27.6,35.6C26.7,34.6,25.2,32.6,24.9,32.1C24.3,31.1,25.7,34.4,26.7,36.1C27.0,36.7,27.7,38.0,28.2,39.0L29.3,40.7L29.3,40.0C29.4,39.6,29.4,39.0,29.5,38.8zM12.9,37.6C12.7,37.0,12.4,36.1,12.3,35.7C12.0,35.0,11.7,34.6,11.2,34.6C10.8,34.6,10.9,34.7,11.6,36.1C12.0,36.9,13.3,38.8,13.3,38.7C13.3,38.7,13.2,38.2,12.9,37.6zM53.1,38.6C53.2,38.6,53.2,38.5,52.9,38.2C52.6,37.9,52.5,37.8,52.3,38.0C52.1,38.2,52.1,38.5,52.2,38.7C52.3,38.8,52.9,38.8,53.1,38.6zM52.3,37.8C52.4,37.7,52.3,37.6,52.1,37.4C51.9,37.3,51.6,37.0,51.4,36.8C51.2,36.6,51.0,36.4,51.0,36.4C50.9,36.4,50.6,37.0,50.6,37.1C50.6,37.2,50.8,37.3,51.1,37.2C51.6,37.1,51.6,37.2,51.4,37.5C51.2,37.9,51.4,38.1,51.8,38.0C52.0,38.0,52.2,37.9,52.3,37.8zM29.8,35.1C29.4,34.7,29.0,34.4,29.0,34.4C29.0,34.4,29.1,34.7,29.3,35.1C29.7,36.0,29.7,36.1,29.3,35.6C28.6,34.8,27.9,33.5,26.8,31.5C26.4,30.7,26.1,30.1,26.1,30.2C26.1,30.2,26.2,30.6,26.3,31.0C26.9,32.9,28.3,35.8,29.2,37.0L29.7,37.7L30.1,36.8L30.5,35.8L29.8,35.1zM54.0,36.8L54.0,36.4L53.8,36.8C53.6,37.0,53.5,37.3,53.5,37.5L53.5,37.8L53.8,37.5C53.9,37.3,54.0,37.1,54.0,36.8zM63.5,37.1C60.9,36.2,58.6,34.9,56.5,33.2C54.9,31.9,53.5,30.3,53.0,29.2C52.8,28.8,52.8,28.8,52.5,28.9C52.4,29.0,52.2,29.1,52.2,29.1C52.2,29.3,53.7,31.1,54.6,31.9C57.4,34.7,60.7,36.6,63.6,37.4C65.1,37.7,65.1,37.6,63.5,37.1zM53.2,36.1C53.2,35.8,53.1,35.6,53.1,35.6C52.9,35.6,52.6,36.9,52.7,37.0C52.8,37.3,53.2,36.7,53.2,36.1zM15.1,35.8C14.6,34.9,13.3,32.2,12.8,30.8C12.6,30.4,12.5,30.1,12.4,30.1C12.4,30.1,12.3,30.3,12.1,30.5C12.0,30.6,11.6,31.1,11.2,31.6C10.5,32.3,10.5,32.4,10.5,32.9C10.5,33.7,10.7,34.3,11.0,34.3C11.2,34.3,11.3,34.3,11.4,34.2C11.5,34.1,11.6,34.1,11.8,34.3C11.9,34.5,12.1,34.6,12.1,34.6C12.1,34.6,12.1,34.0,12.1,33.3C12.1,32.6,12.1,32.0,12.1,32.0C12.2,32.0,12.3,32.3,12.6,32.7C13.1,33.7,15.4,36.8,15.5,36.8C15.6,36.8,15.4,36.3,15.1,35.8zM50.7,36.4C50.9,36.2,50.5,35.7,50.3,35.7C50.1,35.7,49.7,36.3,49.9,36.4C50.0,36.6,50.5,36.6,50.7,36.4zM52.1,35.4C52.1,35.1,52.1,34.9,52.0,34.9C51.9,34.9,51.6,35.9,51.7,36.2C51.8,36.4,51.8,36.4,52.0,36.1C52.0,36.0,52.1,35.7,52.1,35.4zM66.4,35.3C66.8,34.6,67.1,33.7,67.2,33.1C67.2,32.8,67.2,32.8,66.7,32.8C66.2,32.8,66.1,32.9,65.9,33.6C65.8,34.0,65.8,34.1,65.6,34.1C65.4,34.1,65.2,34.2,65.2,34.3C64.9,34.5,64.4,36.1,64.5,36.1C64.8,36.1,65.4,35.6,65.7,35.1C65.9,34.8,66.0,34.6,66.0,34.6C66.1,34.6,65.9,35.5,65.8,35.8C65.6,36.3,65.6,36.4,65.8,36.2C66.0,36.0,66.2,35.7,66.4,35.3zM49.9,35.6C50.0,35.4,50.0,35.4,49.9,35.1C49.6,34.7,49.4,34.7,49.2,35.1C49.2,35.3,49.1,35.5,49.0,35.7C49.0,35.9,49.0,35.9,49.3,35.8C49.6,35.7,49.8,35.6,49.9,35.6zM10.2,33.8C10.3,32.4,10.4,32.4,9.0,33.5C8.0,34.4,8.0,34.5,9.3,35.1C10.1,35.5,10.1,35.6,10.2,33.8zM64.0,35.3C64.2,35.0,64.2,35.0,64.1,34.9C64.0,34.8,63.8,34.8,63.8,34.8C63.5,35.4,63.4,35.5,63.6,35.5C63.7,35.5,63.9,35.4,64.0,35.3zM51.3,34.4L51.3,33.8L51.0,34.4C50.8,34.8,50.7,35.1,50.8,35.2C50.9,35.4,50.9,35.4,51.1,35.2C51.2,35.0,51.3,34.7,51.3,34.4zM30.9,35.1C31.0,34.9,31.0,34.8,30.5,34.5C30.2,34.3,30.0,34.1,30.0,34.2C30.0,34.3,30.7,35.3,30.8,35.3C30.8,35.3,30.9,35.2,30.9,35.1zM49.2,34.4C49.2,34.3,49.1,34.1,48.9,33.9C48.6,33.5,48.6,33.5,47.8,33.8L47.5,33.9L47.8,34.0C48.0,34.1,48.3,34.4,48.4,34.6C48.8,35.0,48.8,35.0,49.0,34.8C49.1,34.7,49.2,34.6,49.2,34.4zM63.8,33.7L64.1,33.2L64.1,33.8C64.2,34.3,64.2,34.4,64.4,34.4C64.6,34.5,64.7,34.4,64.9,34.2C65.0,34.0,65.0,33.9,64.7,33.4C64.1,32.5,64.0,32.5,63.6,33.3C63.5,33.6,63.3,34.0,63.1,34.2L62.8,34.6L63.2,34.4C63.5,34.3,63.7,34.1,63.8,33.7zM50.3,34.0C50.5,33.6,50.6,33.0,50.5,32.9C50.4,32.8,49.9,33.8,49.9,34.1C49.9,34.3,50.1,34.2,50.3,34.0zM66.0,32.7C66.1,32.4,66.2,32.2,66.2,32.3C66.2,32.5,66.8,32.5,67.1,32.3C67.3,32.1,67.4,32.0,67.4,31.5C67.4,30.8,67.2,30.6,66.6,30.6C66.5,30.6,66.3,30.6,66.3,30.5C66.2,30.4,66.4,30.4,66.6,30.5C67.4,30.6,67.5,30.3,67.1,28.7C67.0,28.0,67.0,28.0,66.4,27.9C66.1,27.9,66.0,27.9,66.0,28.2C65.9,28.3,65.9,28.4,65.9,28.3C65.9,28.0,65.2,27.5,64.9,27.4C64.6,27.3,64.6,27.2,64.6,27.0C64.6,26.6,64.0,25.8,63.7,25.8C63.1,25.8,63.1,25.9,63.4,26.6L63.6,27.2L63.3,27.5L62.9,27.8L63.0,29.0C63.0,30.0,63.0,30.1,63.3,30.1C63.5,30.2,63.5,30.1,63.5,29.2C63.5,28.4,63.6,28.3,63.7,28.2C63.9,28.1,64.1,28.1,64.4,28.3C65.0,28.6,65.2,29.0,65.2,29.9C65.3,31.0,65.2,31.3,64.8,31.4C64.3,31.6,63.9,31.4,63.7,30.8C63.6,30.5,63.5,30.4,63.3,30.4L63.0,30.4L63.1,31.0C63.3,31.6,63.6,32.0,64.1,32.2C64.4,32.4,64.5,32.4,64.7,32.2C65.2,31.9,65.2,32.0,64.8,32.4L64.5,32.8L65.0,33.3C65.5,33.7,65.6,33.7,66.0,32.7zM14.6,33.2C14.4,32.9,13.7,30.5,13.8,30.4C13.8,30.4,13.8,30.5,13.9,30.6C13.9,30.8,14.5,31.2,14.7,31.2C14.7,31.2,14.7,31.0,14.6,30.8C14.5,30.2,14.5,29.0,14.6,28.7C14.7,28.4,14.7,28.5,15.1,29.2C15.8,30.4,17.5,32.9,17.3,32.4C17.3,32.3,17.0,31.6,16.7,30.9C16.1,29.5,15.5,27.4,15.4,26.1C15.4,25.6,15.3,25.3,15.2,25.3C15.2,25.3,14.8,26.0,14.4,26.9C13.6,28.4,13.6,28.5,13.7,28.9L13.8,29.4L13.6,29.1C13.3,28.8,13.2,28.9,13.0,29.3C12.8,29.7,12.8,29.8,12.9,30.4C13.1,31.2,13.5,32.0,14.2,32.9C14.5,33.5,14.8,33.7,14.6,33.2zM32.2,33.4C32.3,33.2,32.2,33.1,31.5,32.8C31.0,32.5,30.3,31.9,29.4,30.9C28.6,30.2,28.0,29.6,28.1,29.7C29.0,31.3,30.0,32.3,31.1,33.1C31.8,33.6,32.0,33.6,32.2,33.4zM48.1,33.3C48.4,33.2,48.4,33.1,48.4,32.8C48.3,32.5,48.2,32.1,48.1,31.8L47.9,31.3L47.2,31.3L46.6,31.3L46.9,31.6C47.1,31.8,47.3,32.3,47.4,32.7C47.5,33.1,47.7,33.4,47.7,33.4C47.8,33.4,47.9,33.4,48.1,33.3zM49.7,32.7C50.1,31.8,49.9,31.6,49.4,32.3C49.1,32.9,49.0,33.2,49.3,33.2C49.4,33.2,49.6,32.9,49.7,32.7zM63.6,32.7C63.6,32.5,63.6,32.3,63.3,32.0C62.8,31.2,62.7,31.3,63.1,32.4C63.3,33.0,63.5,33.1,63.6,32.7zM14.8,31.9C14.5,31.4,14.3,31.2,14.3,31.5C14.3,31.6,14.9,32.5,15.0,32.4C15.0,32.4,14.9,32.2,14.8,31.9zM36.3,31.6C34.9,30.2,34.0,28.4,33.7,26.4C33.7,26.3,33.6,26.5,33.6,26.9C33.6,28.7,34.5,30.6,36.1,31.7C36.8,32.3,36.9,32.2,36.3,31.6zM49.1,31.2C49.1,31.0,49.1,30.8,49.0,30.8C48.8,30.8,48.5,31.6,48.6,31.8C48.7,32.0,48.7,32.0,48.9,31.8C49.0,31.6,49.1,31.4,49.1,31.2zM47.6,30.9C47.9,30.7,47.0,28.7,46.2,28.1C45.9,27.7,44.9,27.4,44.4,27.4C44.2,27.4,43.9,27.9,43.9,28.1C43.9,28.4,44.7,28.7,45.2,28.8C45.4,28.8,45.6,28.8,45.5,28.8C45.3,28.9,45.3,29.0,45.8,29.7C46.0,30.1,46.2,30.5,46.3,30.7C46.4,30.9,46.5,31.0,46.9,31.0C47.2,31.0,47.5,30.9,47.6,30.9zM30.1,30.1C29.8,29.7,29.2,29.2,28.9,28.8C28.2,28.0,28.2,28.1,28.9,29.1C29.4,29.7,30.5,30.6,30.7,30.6C30.7,30.6,30.5,30.4,30.1,30.1zM54.9,29.7C54.2,28.9,53.4,27.4,53.2,26.7C53.2,26.3,53.2,26.4,53.6,27.1C53.8,27.6,54.2,28.1,54.7,28.6C55.5,29.3,55.5,29.3,54.8,28.3C54.0,27.2,53.7,26.2,53.8,24.9C53.8,23.9,53.8,23.7,53.6,23.5C53.5,23.4,53.3,23.3,53.2,23.3C53.2,23.3,52.9,23.5,52.5,23.8L52.0,24.4L52.2,24.8C52.3,25.0,52.5,25.1,52.6,25.2L52.8,25.2L52.6,25.5C52.5,25.7,52.4,25.9,52.4,26.0C52.4,26.1,52.2,26.2,52.0,26.3C51.7,26.5,51.1,27.4,51.1,27.7C51.1,27.7,51.3,28.0,51.5,28.3C51.9,28.7,52.0,28.8,52.3,28.6C52.6,28.5,52.6,28.5,52.5,27.7L52.5,26.9L52.8,27.6C53.2,28.4,53.9,29.3,54.8,29.9C55.2,30.2,55.6,30.5,55.6,30.5C55.6,30.5,55.3,30.2,54.9,29.7zM16.9,28.7C16.8,28.1,16.7,27.6,16.7,27.4C16.7,27.3,16.7,27.2,16.7,27.2C16.7,27.2,17.1,27.8,17.6,28.4C18.4,29.6,18.7,29.8,18.3,29.1C18.2,28.9,18.0,28.3,17.8,27.8C17.5,27.0,17.0,26.3,16.7,26.3C16.6,26.3,16.5,26.2,16.3,26.0C16.0,25.6,15.7,25.7,15.7,26.1C15.7,26.7,16.0,27.9,16.5,28.9C16.8,29.5,17.0,29.9,17.1,29.9C17.1,29.8,17.0,29.3,16.9,28.7zM22.7,29.0C22.4,28.4,22.0,27.5,21.7,26.9C21.2,25.7,21.1,25.7,21.5,27.0C21.8,27.9,22.9,29.9,23.1,29.9C23.1,29.9,22.9,29.5,22.7,29.0zM38.4,29.7C38.4,29.6,38.2,29.3,38.0,29.0C37.3,28.1,36.8,26.7,36.5,25.5C36.4,24.9,36.3,24.4,36.3,24.4C36.4,24.3,36.5,24.5,36.7,24.8C37.0,25.4,38.4,26.9,38.8,27.1C39.1,27.3,39.1,27.2,38.7,26.7C38.5,26.4,38.0,25.7,37.7,25.2L37.1,24.3L37.7,24.8C38.5,25.5,39.8,26.2,41.7,27.2C43.3,28.0,43.3,28.0,43.5,27.8C44.0,27.4,43.8,27.1,42.7,26.7C41.3,26.2,40.6,25.9,39.7,25.3C38.5,24.6,36.9,23.2,37.2,23.3C37.4,23.3,37.7,23.4,38.0,23.5C38.4,23.5,38.4,23.5,38.2,23.4C38.1,23.3,37.7,23.1,37.3,23.0L36.7,22.7L37.2,22.7C37.5,22.7,38.2,22.9,38.9,23.1C39.5,23.3,40.1,23.5,40.2,23.4C40.2,23.4,40.3,23.3,40.3,23.1C40.3,22.9,40.3,23.0,40.4,23.3C40.6,23.7,40.8,23.9,41.7,24.1C42.1,24.2,42.1,24.2,42.1,23.9C42.0,23.7,42.1,23.6,42.3,23.6C42.5,23.6,42.5,23.7,42.5,23.9C42.5,24.2,42.9,24.4,43.4,24.5C43.7,24.5,43.7,24.5,43.8,23.9C43.8,23.6,43.9,23.2,44.0,23.1C44.1,22.8,44.1,22.7,43.7,22.4C43.2,22.0,42.9,21.4,42.9,20.9C42.9,20.5,42.8,20.5,42.5,20.9C42.3,21.1,42.2,21.2,42.3,21.5C42.4,21.9,42.9,22.5,43.3,22.8C43.5,22.9,43.4,22.9,42.8,22.8C42.0,22.8,41.2,22.6,39.6,22.1C38.5,21.8,37.3,21.9,36.3,22.3C35.3,22.7,35.2,23.0,35.0,24.1C34.8,25.2,35.0,26.4,35.5,27.5C35.9,28.3,36.0,28.3,35.8,27.6C35.7,27.1,35.7,25.2,35.8,24.8C35.9,24.7,35.9,24.7,35.9,25.0C35.9,25.6,36.4,27.0,36.9,27.8C37.2,28.4,38.3,29.8,38.5,29.8C38.5,29.8,38.5,29.7,38.4,29.7zM61.9,27.5C61.8,26.7,60.9,24.9,60.3,24.3C59.9,23.8,59.9,23.9,60.4,24.6C61.1,25.6,61.7,27.4,61.9,28.9L62.0,29.6L62.0,28.9C62.0,28.5,62.0,27.9,61.9,27.5zM66.8,27.4C66.8,27.2,66.4,26.4,66.1,26.2C66.0,26.1,65.8,26.0,65.6,25.9L65.3,25.7L65.7,25.7C66.1,25.7,66.1,25.6,65.5,25.0C65.1,24.5,65.0,24.4,64.5,24.4C64.2,24.4,64.0,24.4,64.1,24.3C64.1,24.3,64.2,24.2,64.3,24.2C64.9,24.2,64.7,23.9,63.4,22.7C62.7,22.0,61.7,21.1,61.2,20.6C60.2,19.8,59.9,19.7,59.4,19.9C59.2,20.0,59.0,19.9,58.7,19.7L58.2,19.5L57.9,19.7L57.7,20.0L58.3,20.5C59.3,21.3,59.4,21.3,59.6,21.2C59.8,21.1,60.3,21.1,60.4,21.3C60.5,21.4,60.4,21.4,60.3,21.3C60.2,21.3,60.0,21.4,59.9,21.5C59.8,21.7,59.8,21.8,60.5,22.4C61.2,23.0,61.5,23.1,61.4,22.7C61.3,22.6,61.4,22.6,61.8,22.6C62.5,22.7,62.6,22.9,62.2,22.9C61.6,23.0,61.6,23.3,62.1,24.1C62.4,24.5,62.7,25.0,62.9,25.3C63.1,25.6,63.1,25.6,63.6,25.6C63.9,25.5,64.1,25.5,64.1,25.6C64.1,25.7,64.3,26.0,64.6,26.4C64.9,27.0,65.1,27.2,65.5,27.4C66.1,27.6,66.8,27.6,66.8,27.4zM51.0,27.0C51.2,26.5,51.3,26.3,51.0,26.0C50.8,25.8,50.8,25.8,51.0,25.9C51.6,26.1,51.7,26.1,51.9,25.8C52.2,25.5,52.2,25.2,51.9,25.0C51.7,24.8,51.6,24.8,51.1,24.9C50.8,25.0,50.3,25.0,50.0,25.0C49.5,25.0,49.5,25.0,49.5,25.3C49.5,25.5,49.4,25.6,49.2,25.7C49.0,25.8,48.8,25.9,48.8,26.0C48.8,26.1,50.5,27.3,50.6,27.3C50.7,27.3,50.8,27.2,51.0,27.0zM19.1,26.5C18.9,26.2,18.8,25.4,18.7,24.8C18.6,24.3,18.5,23.7,18.4,23.7C18.4,23.6,18.2,23.4,18.1,23.3L18.0,23.0L18.3,23.2L18.6,23.5L18.7,22.1C18.9,20.4,18.9,20.2,19.1,20.3C19.2,20.4,19.4,20.5,19.6,20.5C19.8,20.6,19.9,20.5,19.9,20.2C20.0,20.0,20.0,19.7,20.0,19.4C20.0,19.0,20.0,19.0,19.7,18.9C19.4,18.9,19.3,18.7,19.1,18.4C19.0,18.2,18.9,18.1,18.8,18.1C18.8,18.1,18.5,18.6,18.2,19.2C17.7,20.1,17.6,20.2,17.7,21.0L17.7,21.8L17.5,21.4L17.3,21.0L17.1,21.3C17.0,21.5,16.6,22.2,16.3,22.9C15.7,24.4,15.6,24.9,16.0,25.3C16.2,25.4,16.6,25.7,16.8,26.0C17.1,26.2,17.4,26.4,17.4,26.4C17.4,26.4,17.4,25.9,17.3,25.3C17.2,24.7,17.2,24.0,17.3,23.7L17.3,23.1L17.6,23.8C17.9,24.9,19.1,27.2,19.2,27.2C19.3,27.2,19.2,26.9,19.1,26.5zM30.9,26.2C29.7,23.9,28.3,20.0,28.3,19.0C28.3,18.9,28.2,18.7,28.1,18.7C28.0,18.7,28.1,19.7,28.3,21.0C28.5,22.7,29.4,24.5,30.7,26.2C31.1,26.8,31.4,27.2,31.5,27.2C31.5,27.2,31.3,26.8,30.9,26.2zM48.7,25.4C48.9,25.2,49.1,24.9,49.1,24.8C49.1,24.7,48.6,24.3,48.0,24.0C46.6,23.1,46.4,23.0,47.4,23.3C48.3,23.6,49.6,23.7,49.5,23.5C49.5,23.4,49.3,23.4,49.2,23.4C49.0,23.4,48.7,23.3,48.5,23.2L48.0,23.0L48.6,23.0C48.9,22.9,49.5,22.8,49.8,22.7C50.5,22.4,50.4,22.3,49.7,22.5C49.2,22.6,49.1,22.5,49.6,22.3C50.0,22.1,50.6,21.5,50.5,21.5C50.4,21.5,50.2,21.6,50.0,21.7L49.5,21.9L49.9,21.5L50.3,21.2L50.0,21.3C49.8,21.3,49.2,21.4,48.7,21.4C47.8,21.4,47.7,21.3,47.3,21.0C46.7,20.5,46.3,19.6,46.3,18.6L46.2,17.7L46.0,18.1L45.8,18.4L45.8,18.1C45.8,17.9,45.9,17.6,46.0,17.4L46.2,16.9L46.0,17.2C45.5,17.9,45.3,19.4,45.7,20.2C45.8,20.4,46.1,20.8,46.4,21.1C47.0,21.7,47.0,21.8,46.4,21.5C45.6,21.1,44.9,20.1,44.9,19.3C44.9,18.8,44.9,18.8,44.5,18.6C44.1,18.4,44.1,18.4,44.0,18.7C44.0,18.8,44.1,19.3,44.2,19.8C44.4,20.3,44.5,20.7,44.5,20.7C44.5,20.7,44.3,20.5,44.2,20.2C44.0,19.8,43.9,19.7,43.9,19.8C43.9,19.9,44.0,20.3,44.2,20.7C44.4,21.2,44.6,21.4,45.1,21.7C45.5,21.9,45.6,22.0,45.3,21.9C45.1,21.9,44.8,21.8,44.6,21.6C44.4,21.5,44.2,21.4,44.1,21.4C44.0,21.6,44.8,22.2,45.6,22.5C46.0,22.8,46.4,23.0,46.4,23.0C46.4,23.1,46.0,23.1,45.5,23.0C44.6,22.9,44.6,22.9,44.4,23.2C44.1,23.6,44.0,24.2,44.2,24.5C44.3,24.6,44.6,24.7,45.0,24.7C45.5,24.7,45.5,24.7,45.6,24.4L45.7,24.0L45.8,24.4C45.9,24.6,46.2,24.8,46.6,24.9C46.9,25.1,47.4,25.4,47.6,25.5C47.9,25.7,48.1,25.8,48.2,25.8C48.3,25.8,48.5,25.7,48.7,25.4zM23.0,23.0C22.9,22.4,22.4,20.1,22.4,19.7C22.4,19.7,21.5,19.8,21.4,19.8C21.4,19.9,22.1,21.7,22.6,22.8C22.9,23.5,23.2,24.0,23.2,23.9C23.2,23.9,23.2,23.5,23.0,23.0zM20.1,23.2C20.1,22.9,20.0,22.2,19.9,21.8C19.8,20.9,19.8,20.9,19.5,20.9C19.2,20.8,19.2,20.9,19.2,21.1C19.2,21.5,20.1,23.9,20.2,23.8C20.2,23.8,20.2,23.5,20.1,23.2zM33.5,22.9C33.6,22.5,34.0,21.6,34.4,20.9C34.9,19.9,34.9,19.7,34.7,19.9C34.5,20.1,34.3,20.4,34.1,20.7C34.0,21.0,33.8,21.2,33.8,21.2C33.7,21.1,34.5,19.0,34.7,18.7C34.8,18.6,34.8,18.6,34.6,18.7C34.3,19.0,33.5,20.6,33.3,21.4C33.1,22.3,33.0,23.7,33.1,23.7C33.2,23.7,33.3,23.4,33.5,22.9zM54.4,22.8L54.8,22.2L54.6,21.9L54.3,21.7L53.9,22.1C53.5,22.6,53.4,23.0,53.7,23.3C53.9,23.5,53.9,23.4,54.4,22.8zM37.4,21.2C37.8,20.9,38.1,20.7,38.1,20.6C38.1,20.6,37.8,20.7,37.4,20.8C36.9,21.0,36.5,21.3,36.2,21.7C35.4,22.4,35.4,22.6,36.1,22.1C36.5,21.9,37.0,21.5,37.4,21.2zM55.2,21.6C55.4,21.5,55.4,21.3,55.2,21.1L55.0,20.7L54.7,21.1L54.4,21.5L54.7,21.7C55.0,21.9,55.1,21.9,55.2,21.6zM39.8,21.2C40.0,20.8,40.1,20.5,40.1,20.2L40.1,19.7L39.9,20.2C39.8,20.5,39.5,20.9,39.2,21.2C38.8,21.6,38.8,21.6,39.1,21.6C39.3,21.6,39.5,21.5,39.8,21.2zM49.5,20.7C49.7,20.7,49.6,20.6,49.2,20.6C48.4,20.5,47.7,20.0,47.3,19.3L47.0,18.7L47.0,19.1C47.0,20.3,48.4,21.2,49.5,20.7zM42.6,20.2C42.8,20.0,42.9,19.9,43.0,19.0C43.2,18.0,43.1,17.9,42.5,18.0C42.1,18.0,42.0,18.2,42.0,19.3C42.0,20.1,42.1,20.5,42.2,20.5C42.2,20.5,42.4,20.4,42.6,20.2zM25.2,18.5C25.2,17.7,25.1,17.0,25.1,17.0C25.1,17.0,24.9,17.2,24.8,17.5L24.4,18.1L24.8,19.1C25.0,19.6,25.2,20.0,25.2,20.0C25.2,20.0,25.2,19.3,25.2,18.5zM49.1,19.6C48.6,19.3,48.1,18.5,48.2,17.9C48.3,17.6,48.2,17.6,48.2,17.7C48.1,17.8,48.1,18.1,48.1,18.4C48.0,18.9,48.1,19.0,48.4,19.4C48.7,19.7,49.0,19.8,49.2,19.8L49.5,19.8L49.1,19.6zM57.7,19.6C57.8,19.4,57.8,19.3,57.7,19.2C57.4,19.0,57.9,19.1,58.5,19.4C59.0,19.6,59.3,19.7,59.5,19.7C59.7,19.7,59.8,19.6,59.8,19.6C59.8,19.5,59.2,18.9,58.5,18.2C57.8,17.5,57.0,16.7,56.8,16.4C56.4,15.9,55.6,15.3,55.5,15.4C55.4,15.5,56.4,17.2,56.9,17.8L57.5,18.4L57.0,18.1C56.5,17.8,56.2,17.8,55.9,18.2C55.8,18.4,55.7,18.5,55.7,18.5C56.3,19.0,57.4,19.8,57.5,19.8C57.5,19.8,57.6,19.7,57.7,19.6zM31.6,18.2C31.6,17.5,31.6,17.1,31.5,17.3C31.4,17.6,31.4,19.6,31.4,19.5C31.5,19.5,31.5,18.9,31.6,18.2zM22.4,18.9C22.5,18.5,22.5,18.5,22.1,18.0C21.8,17.7,21.6,17.5,21.6,17.3L21.6,16.9L21.8,17.3C21.9,17.6,22.3,17.9,22.5,17.9C22.5,17.9,22.6,17.8,22.6,17.5C22.6,17.3,22.6,16.9,22.7,16.6L22.9,16.0L23.1,16.8L23.4,17.6L23.5,16.1C23.5,15.3,23.6,14.1,23.7,13.6C23.8,13.0,23.8,12.5,23.8,12.5C23.7,12.4,22.1,14.0,21.7,14.5C21.5,14.8,21.4,15.0,21.5,15.3C21.7,15.7,21.6,15.8,21.3,15.5L21.0,15.2L20.5,15.8C19.2,17.3,19.0,17.9,19.6,18.4C20.1,18.8,20.2,18.8,20.5,17.9C20.6,17.5,20.8,17.1,20.8,17.1C20.9,17.0,21.0,17.4,21.0,17.9C21.3,19.4,21.3,19.5,21.8,19.4C22.2,19.4,22.3,19.3,22.4,18.9zM38.3,16.5C38.8,15.6,39.3,14.9,39.1,15.3C38.8,16.3,38.6,18.1,38.9,18.2C38.9,18.3,39.0,18.1,39.0,17.8C39.0,17.3,39.2,16.5,39.6,15.7C40.6,13.7,42.3,12.1,44.6,11.0C45.7,10.4,45.7,10.5,44.6,11.1C43.1,12.0,41.9,13.2,41.4,14.6C41.1,15.3,41.1,15.3,42.0,14.2C42.5,13.5,43.2,12.8,43.7,12.5C43.8,12.5,43.7,12.8,43.4,13.2C43.2,13.7,43.0,14.2,43.0,14.3L42.9,14.6L43.1,14.3C43.5,13.8,44.4,12.9,44.6,12.8C44.8,12.7,44.8,12.7,44.7,12.8C44.5,13.1,44.6,13.9,44.8,14.0C45.0,14.1,45.1,14.1,45.4,13.8C45.7,13.6,45.8,13.5,45.7,12.9C45.7,12.5,45.8,12.2,46.0,11.8C46.3,11.2,46.3,11.2,45.6,11.5C45.3,11.5,45.1,11.6,45.1,11.5C45.2,11.3,46.6,10.7,47.4,10.6L48.2,10.4L47.6,10.1C46.1,9.1,42.8,7.9,41.3,7.6C40.8,7.5,40.6,7.7,40.9,8.0C41.1,8.2,41.1,8.2,40.9,8.1C40.4,7.9,39.8,7.9,39.3,8.1C39.0,8.2,38.7,8.2,38.7,8.2C38.6,8.2,39.1,7.9,39.7,7.7L40.1,7.5L39.8,7.4C39.6,7.4,38.8,7.4,37.9,7.3C36.3,7.3,36.2,7.3,35.7,7.7C34.5,8.5,33.6,10.0,33.3,12.4L33.2,12.9L33.7,12.5C34.0,12.2,34.4,11.8,34.6,11.5C34.8,11.2,35.3,10.6,35.8,10.1C36.3,9.7,36.7,9.3,36.6,9.3C36.6,9.2,36.4,9.1,36.2,9.0L35.9,8.8L36.4,8.9C36.6,8.9,37.0,9.0,37.1,9.0L37.4,9.0L37.2,9.4C36.8,9.8,35.9,11.1,35.7,11.6L35.5,12.0L35.9,11.6C37.4,10.0,40.0,8.8,41.9,8.9L42.8,8.9L42.0,9.1C41.2,9.3,40.6,9.6,40.7,9.8C40.7,9.8,40.8,9.9,40.9,9.9C41.3,9.9,41.3,10.0,41.1,10.3C40.9,10.5,40.9,10.7,40.9,10.7C40.9,10.7,41.3,10.6,41.8,10.5C42.6,10.2,44.4,10.0,44.5,10.1C44.6,10.1,44.5,10.1,44.4,10.1C44.3,10.1,43.8,10.3,43.3,10.6C40.1,12.1,37.7,15.3,37.4,18.2L37.3,18.9L37.6,18.1C37.8,17.7,38.1,16.9,38.3,16.5zM45.1,17.4C45.2,16.9,45.3,16.4,45.3,16.4C45.3,16.4,45.1,16.6,45.0,16.9C44.8,17.2,44.6,17.4,44.6,17.4C44.4,17.3,44.3,18.0,44.4,18.2C44.7,18.6,44.9,18.4,45.1,17.4zM50.8,18.0C50.8,17.7,50.8,17.5,50.5,17.2C49.7,16.4,49.0,17.2,49.8,18.0C50.1,18.3,50.2,18.4,50.5,18.4C50.7,18.3,50.8,18.3,50.8,18.0zM55.7,17.3C55.4,17.0,55.4,17.0,54.9,17.2C54.3,17.4,54.3,17.5,54.8,17.9L55.3,18.3L55.7,17.9L56.0,17.6L55.7,17.3zM25.0,16.7C25.2,16.5,25.3,16.1,25.4,15.6C25.4,15.2,25.5,14.6,25.6,14.2C25.8,13.6,25.8,13.5,25.4,13.5C25.2,13.5,24.8,14.1,24.8,14.5C24.8,14.6,24.7,14.6,24.4,14.6C24.2,14.5,24.1,14.6,24.0,14.7C23.9,14.9,24.1,16.5,24.3,17.2L24.4,17.6L24.6,17.3C24.7,17.1,24.9,16.8,25.0,16.7zM43.6,16.9C43.8,16.5,43.9,16.2,43.9,16.2C43.9,16.0,43.2,15.8,43.1,15.9C42.9,16.0,42.4,17.2,42.5,17.4C42.6,17.5,42.7,17.6,43.0,17.6C43.4,17.5,43.4,17.5,43.6,16.9zM27.6,16.6C27.6,16.4,27.5,16.3,27.5,16.3C27.4,16.3,27.4,16.6,27.5,17.0C27.6,17.3,27.7,16.9,27.6,16.6zM54.8,16.9L55.1,16.6L54.9,16.0C54.6,15.2,53.9,14.1,53.7,14.1C53.5,14.1,53.1,14.5,53.1,14.8C53.1,15.0,53.2,15.3,53.3,15.5C53.5,15.7,53.7,16.2,53.9,16.5C54.0,16.8,54.2,17.1,54.3,17.1C54.3,17.1,54.6,17.0,54.8,16.9zM28.0,15.3C28.1,14.9,28.1,14.5,28.1,14.4C28.1,14.2,28.1,14.2,27.9,14.4C27.4,15.1,27.3,15.3,27.5,15.7C27.6,15.9,27.7,16.1,27.8,16.0C27.8,16.0,27.9,15.7,28.0,15.3zM44.3,15.3C44.5,15.1,44.7,14.8,44.7,14.7C44.7,14.6,44.6,14.5,44.4,14.3C44.0,14.0,43.9,14.1,43.5,15.0L43.2,15.5L43.4,15.7C43.8,15.9,43.9,15.9,44.3,15.3zM31.1,13.1C31.4,12.3,31.4,12.1,30.8,12.3L30.4,12.4L30.4,13.5C30.4,14.1,30.4,14.8,30.4,15.0C30.5,15.4,30.5,15.4,30.7,14.7C30.7,14.2,31.0,13.6,31.1,13.1zM33.8,13.3C34.0,12.6,34.0,12.5,33.7,12.8C33.2,13.2,33.0,13.9,33.2,15.0C33.3,15.4,33.3,15.4,33.5,14.6C33.5,14.2,33.7,13.6,33.8,13.3zM28.0,13.9C28.6,13.0,28.6,12.9,28.5,12.7C28.4,12.5,28.3,12.4,28.2,12.3C28.1,12.3,28.0,12.1,28.0,11.9L28.0,11.6L28.3,12.0C28.6,12.3,29.0,12.5,29.0,12.2C29.0,12.0,29.8,10.4,30.4,9.4C30.8,8.9,31.0,8.4,31.0,8.4C30.9,8.3,29.3,8.9,28.6,9.3C27.4,9.9,26.9,10.8,26.9,12.7C27.0,13.4,27.2,14.9,27.3,14.9C27.3,14.9,27.6,14.5,28.0,13.9zM52.9,14.3C53.0,14.1,53.2,13.9,53.3,13.9C53.6,13.8,53.6,13.8,53.4,13.5C53.1,12.9,51.5,11.9,50.6,11.7C50.1,11.6,49.3,12.0,49.1,12.5C49.0,12.7,49.0,12.8,49.0,12.9C49.0,12.9,49.4,13.0,49.9,13.1C50.3,13.3,50.8,13.4,50.9,13.4C51.0,13.5,51.1,13.5,51.1,13.3C51.1,13.2,51.1,13.2,51.2,13.2C51.3,13.2,51.5,13.3,51.5,13.5C51.5,13.7,52.4,14.5,52.6,14.5C52.6,14.5,52.8,14.4,52.9,14.3zM24.7,14.0C24.7,13.9,24.9,13.7,25.0,13.6C25.1,13.4,25.2,13.3,25.2,13.1C25.2,12.9,25.4,12.9,25.6,13.1C25.8,13.3,26.0,13.1,26.2,12.4C26.3,12.1,26.6,11.5,26.8,11.0C27.2,10.2,27.3,10.1,27.1,10.1C26.9,10.1,24.5,11.8,24.4,12.1C24.3,12.3,24.1,12.8,24.1,13.2C24.0,13.9,24.0,14.0,24.1,14.1C24.4,14.3,24.6,14.2,24.7,14.0zM39.4,11.5C40.3,10.9,40.6,10.7,40.6,10.2C40.6,9.9,40.1,10.0,39.5,10.4C38.8,10.9,38.2,11.5,37.6,12.2C36.9,13.2,36.9,13.2,37.7,12.6C38.1,12.3,38.9,11.8,39.4,11.5zM47.8,12.9C48.3,12.8,48.4,12.7,48.6,12.4C48.7,12.2,48.9,11.9,49.1,11.7C49.4,11.6,49.6,11.5,49.6,11.4C49.6,11.3,49.0,11.2,48.3,11.2C47.0,11.2,46.2,11.7,46.2,12.5C46.2,13.0,46.3,13.1,46.9,13.0C47.1,13.0,47.5,12.9,47.8,12.9zM31.2,12.0C31.6,12.0,31.7,11.9,31.9,11.6C32.3,10.8,33.5,9.2,34.3,8.3L35.2,7.4L34.7,7.5C33.3,7.7,32.1,8.1,31.7,8.3C31.3,8.7,30.9,9.5,30.6,10.6C30.3,11.7,30.3,12.2,30.5,12.1C30.6,12.0,30.9,12.0,31.2,12.0zM49.1,69.5C48.9,69.3,48.9,68.6,49.2,68.1C49.5,67.4,51.4,65.6,52.2,65.2C53.1,64.8,53.4,64.7,53.7,65.0C54.0,65.2,54.0,65.3,54.0,65.7C53.9,66.0,53.8,66.4,53.6,66.7C53.0,67.5,51.4,69.0,50.8,69.3C50.2,69.6,49.4,69.7,49.1,69.5zM50.9,68.3C51.4,68.0,52.6,66.8,52.9,66.3C53.1,66.0,53.0,65.8,52.7,65.8C52.2,65.8,50.5,67.3,50.1,68.2C49.8,68.8,50.2,68.9,50.9,68.3zM46.8,68.1C46.2,67.7,46.7,66.6,48.0,65.4C49.5,64.0,50.9,63.4,51.4,63.8C51.7,64.0,51.5,64.7,51.1,65.3C50.5,66.2,48.9,67.6,48.1,68.0C47.3,68.4,47.1,68.4,46.8,68.1zM49.0,66.5C50.2,65.5,50.7,64.8,50.4,64.6C50.0,64.3,47.4,66.7,47.6,67.2C47.7,67.5,48.1,67.3,49.0,66.5zM54.8,63.7C54.6,63.6,54.6,63.5,56.3,62.0C57.3,61.1,58.1,60.3,58.2,60.3C58.2,60.3,58.2,60.2,58.1,60.2C57.9,60.1,59.0,59.2,59.2,59.2C59.3,59.2,59.5,59.3,59.7,59.4C60.0,59.6,59.9,59.6,58.7,60.8C56.6,62.8,55.4,63.9,55.2,63.9C55.2,63.9,55.0,63.8,54.8,63.7zM62.7,56.1C62.6,56.0,62.4,56.0,62.4,55.9C62.4,55.9,62.6,55.7,62.9,55.4C63.2,55.1,63.4,54.9,63.4,54.8C63.4,54.7,63.1,54.6,62.2,54.4L61.8,54.3L62.4,53.9C62.6,53.7,63.8,52.9,65.0,52.3C66.7,51.3,67.2,51.1,67.5,51.1C67.7,51.1,67.9,51.1,67.9,51.2C68.0,51.2,67.4,51.9,66.6,52.6C65.8,53.4,65.2,54.1,65.2,54.2C65.3,54.2,65.4,54.2,65.6,54.2C65.9,54.2,65.9,54.3,65.5,54.7C65.2,55.0,65.1,55.1,64.8,55.0C64.4,55.0,64.3,55.1,63.9,55.5C63.1,56.2,63.0,56.2,62.7,56.1zM65.0,53.2C65.5,52.7,65.6,52.6,65.3,52.8C65.1,53.0,64.6,53.2,64.3,53.4C63.6,53.7,63.5,53.9,64.0,53.9C64.2,53.9,64.5,53.7,65.0,53.2zM67.5,49.6C67.2,49.4,67.2,48.9,67.4,48.5C67.5,48.4,67.6,48.3,68.1,48.3C68.6,48.3,68.7,48.3,68.5,48.5C68.3,48.7,68.5,48.9,68.9,48.9C69.5,48.9,70.2,48.4,70.2,48.0C70.2,47.9,70.0,47.8,69.8,47.8L69.5,47.7L69.8,47.3C70.0,47.0,70.1,46.9,70.6,46.9C71.1,46.9,71.8,46.5,71.8,46.2C71.7,46.0,71.2,45.9,70.9,46.1C70.8,46.3,70.6,46.3,70.2,46.3L69.7,46.3L69.9,46.0C70.2,45.7,71.1,45.2,71.6,45.1C71.8,45.1,72.1,45.1,72.3,45.2C72.8,45.3,72.9,45.7,72.7,46.3C72.5,46.7,71.7,47.4,71.4,47.4C71.3,47.4,71.2,47.6,71.2,47.8C71.1,48.5,70.2,49.4,69.4,49.6C68.7,49.9,67.9,49.9,67.5,49.6zM64.0,49.1L63.2,48.9L63.6,48.6C63.8,48.3,64.1,48.2,64.3,48.2C64.6,48.2,64.9,48.0,65.7,47.2C66.7,46.3,66.9,46.1,66.7,46.1C66.4,46.1,66.6,45.8,67.2,45.4C67.8,44.9,68.0,44.9,68.5,44.9L69.0,45.0L67.3,46.6C66.4,47.5,65.6,48.3,65.6,48.3C65.6,48.4,65.8,48.4,65.9,48.4L66.2,48.4L65.9,48.8C65.5,49.3,65.4,49.3,64.0,49.1z" id="shape14" fill="#3b2929" fill-rule="nonzero" transform="translate(10.576000,0.000000)"/></g></svg>